<mxfile host="app.diagrams.net" modified="2024-08-07T08:29:01.901Z" agent="Mozilla/5.0 (X11; Ubuntu; Linux x86_64; rv:127.0) Gecko/20100101 Firefox/127.0" version="24.6.5" etag="cbZ_CCDzh30cDe1nV4_3" type="github">
  <diagram name="Page-1" id="7jjlgYWzf-zAq-LQCQpL">
    <mxGraphModel>
      <root>
        <mxCell id="0" />
        <mxCell id="1" parent="0" />
      </root>
    </mxGraphModel>
  </diagram>
</mxfile>
